<svg xmlns="http://www.w3.org/2000/svg" width="611.426" height="554.872" viewBox="0 0 611.426 554.872">
  <g id="box_configure" transform="translate(-55.737 -1755.856)">
    <g id="Grupo_11582" data-name="Grupo 11582" transform="translate(67.346 1768.61)">
      <path id="Caminho_182" data-name="Caminho 182" d="M747.96,504.861l-.453-72.874q-.26-36.439-.587-72.874-.681-72.873-1.546-145.74l-.85-72.869a9.773,9.773,0,0,0-.228-2.382,7.385,7.385,0,0,0-.919-2.206,6.293,6.293,0,0,0-2.267-2.185,5.589,5.589,0,0,0-4.924-3.26H715.98c-8.669,11.74-6.31,26.064-30.285,23.022-7.469-.95-17.146-11.568-20.116-23.022H633.247a43.6,43.6,0,0,1-14.55,17.135c-5.475,3.575-11.751,5.462-17.763,3.028-7.309-2.96-11.191-11.023-12.1-20.162H552.625c-5.117,7.716-8.115,19.231-23.565,23.022-11.032,3.067-17.376-10.977-20.8-23.022H470.693c-4.752,9.693-7.165,23.437-22.692,22.48-9.658.809-18.488-11.977-21.479-22.48h-40.1c-4.036,9.948-5.479,22.385-21.136,23.022-5.13.42-10.186-6.2-13.86-10.852a28.245,28.245,0,0,1-5.193-12.17H308.6c-3.779,5.66-2.266,14.5-15.167,20.162-23.5,6.953-23.91-6.7-28.054-20.162H227.486c-2.331,5.019-6.515,16.961-10.664,20.162-19.713,8-24.477-6.738-31.365-20.162h-7.545c-3.129,0-5.665,2.885-5.665,6.444V644.557a6.8,6.8,0,0,0,2.086,4.994c.055.211.118.418.192.623a6.711,6.711,0,0,0,2.819,3.526,5.294,5.294,0,0,0,2.033.721,18.309,18.309,0,0,0,2.047.063l8.008.02,16.016.04,32.031.066,64.063.127,64.063.018,128.125-.032,128.126.247,64.063-.08,32.033-.087,16.016-.069,8.011-.063,2-.024c.668-.009,1.324-.009,2.042-.043l.528-.022c.3-.117.07.229.807-.269a2.264,2.264,0,0,0,.209-.787c.026-.2.046-.4.063-.591.069-.775.105-1.536.141-2.3.24-6.09.281-12.159.342-18.237l.089-18.222q.061-18.221.023-36.439Q748.169,541.3,747.96,504.861Zm-.787,127.529c-.069,6.066-.117,12.146-.362,18.19-.036.752-.075,1.509-.14,2.244q-.026.277-.058.54a.935.935,0,0,1-.017.124c-.088.018-.185.042-.2.009l-.472.012c-.616.024-1.295.031-1.961.035l-2,.023-8,.049-16.015.046-32.031.029H621.856l-128.125.194-64.063-.06-64.063-.149-64.064-.1-64.063,0-32.031,0-16.015,0-8.008,0a18,18,0,0,1-1.951-.051,4.561,4.561,0,0,1-1.769-.621,5.762,5.762,0,0,1-2.25-2.552A5.078,5.078,0,0,0,177.9,651c59.249.071,564.05.649,566.813-.006,2.744-.653-2.207-454.849-2.865-514.163a7.261,7.261,0,0,0-.184-1.525,5.531,5.531,0,0,1,.99,1.193,6.365,6.365,0,0,1,.781,1.887,8.528,8.528,0,0,1,.191,2.131l.71,72.869,1.277,145.742,1.216,145.742q.255,36.434.4,72.871.058,18.216.045,36.433Q747.257,623.283,747.173,632.391Z" transform="translate(-161.967 -125.47)" fill="rgba(23,21,86,0.5)"/>
      <g id="Grupo_251" data-name="Grupo 251" transform="translate(0)">
        <path id="Caminho_183" data-name="Caminho 183" d="M732.925,126.1l-28.41-.144a27.994,27.994,0,0,1,.784,6.516c0,13.57-9.577,24.571-21.39,24.571s-21.391-11-21.391-24.571a27.913,27.913,0,0,1,.832-6.723l-38.806-.2a27.983,27.983,0,0,1,.875,6.919c0,13.57-9.577,24.571-21.391,24.571s-21.39-11-21.39-24.571a27.935,27.935,0,0,1,.921-7.126l-38.989-.2a27.927,27.927,0,0,1,.967,7.322c0,13.57-9.577,24.571-21.39,24.571s-21.391-11-21.391-24.571a27.87,27.87,0,0,1,1.033-7.528l-39.227-.2a27.85,27.85,0,0,1,1.095,7.725c0,13.57-9.577,24.571-21.391,24.571s-21.39-11-21.39-24.571a27.816,27.816,0,0,1,1.159-7.929l-39.484-.2a27.757,27.757,0,0,1,1.224,8.128c0,13.57-9.577,24.571-21.39,24.571s-21.391-11-21.391-24.571a27.715,27.715,0,0,1,1.288-8.331l-39.741-.2a27.689,27.689,0,0,1,1.352,8.531c0,13.57-9.577,24.571-21.39,24.571s-21.391-11-21.391-24.571a27.713,27.713,0,0,1,1.417-8.734l-40-.2a27.711,27.711,0,0,1,1.48,8.934c0,13.57-9.577,24.571-21.391,24.571s-21.39-11-21.39-24.571a27.673,27.673,0,0,1,1.545-9.135L157.3,123.2l6.724,522.7H738.955Z" transform="translate(-157.3 -123.199)" fill="#fff"/>
        <path id="Caminho_184" data-name="Caminho 184" d="M732.925,126.1l-28.41-.144a27.994,27.994,0,0,1,.784,6.516c0,13.57-9.577,24.571-21.39,24.571s-21.391-11-21.391-24.571a27.913,27.913,0,0,1,.832-6.723l-38.806-.2a27.983,27.983,0,0,1,.875,6.919c0,13.57-9.577,24.571-21.391,24.571s-21.39-11-21.39-24.571a27.935,27.935,0,0,1,.921-7.126l-38.989-.2a27.927,27.927,0,0,1,.967,7.322c0,13.57-9.577,24.571-21.39,24.571s-21.391-11-21.391-24.571a27.87,27.87,0,0,1,1.033-7.528l-39.227-.2a27.85,27.85,0,0,1,1.095,7.725c0,13.57-9.577,24.571-21.391,24.571s-21.39-11-21.39-24.571a27.816,27.816,0,0,1,1.159-7.929l-39.484-.2a27.757,27.757,0,0,1,1.224,8.128c0,13.57-9.577,24.571-21.39,24.571s-21.391-11-21.391-24.571a27.715,27.715,0,0,1,1.288-8.331l-39.741-.2a27.689,27.689,0,0,1,1.352,8.531c0,13.57-9.577,24.571-21.39,24.571s-21.391-11-21.391-24.571a27.713,27.713,0,0,1,1.417-8.734l-40-.2a27.711,27.711,0,0,1,1.48,8.934c0,13.57-9.577,24.571-21.391,24.571s-21.39-11-21.39-24.571a27.673,27.673,0,0,1,1.545-9.135L157.3,123.2l6.724,522.7H738.955Z" transform="translate(-157.3 -123.199)" fill="none" stroke="#171556" stroke-miterlimit="10" stroke-width="3"/>
      </g>
    </g>
    <g id="Grupo_11584" data-name="Grupo 11584" transform="translate(113.29 1834.977)" opacity="0.185">
      <path id="Caminho_5357" data-name="Caminho 5357" d="M5550.173,2515.858c2.8,0,5.595,0,8.392.008v-1.658C5555.768,2514.905,5552.97,2515.438,5550.173,2515.858Z" transform="translate(-5059.538 -2473.539)" fill="#5e9afc"/>
      <path id="Caminho_5358" data-name="Caminho 5358" d="M5614.046,2474.234H5132.481c-5.515,0-10,5.033-10,10.392v386.606h3.862c-.014-2.561-.034-5.123-.04-7.684q-.023-7.9,0-15.805c.459,0,.917.007,1.374.007,18.045.079,36.093-.455,54.142-.382,117.3.923,177.409.2,294.713-.07l-7.25.227c30.753.272,77.121-.218,108.284-.424,14.415-.03,28.834,0,43.253-.037v-1.541c-14.415-.041-28.836,0-43.253-.036-31.336-.208-77.372-.7-108.284-.423l7.25.226c-117.3-.277-177.406-.991-294.713-.07-18.049.074-36.1-.461-54.142-.383-.457,0-.908.007-1.361.009q.015-6.062.034-12.123l.188-30.825v-1.12c.428,0,.856,0,1.285.007,18.047.078,36.093-.457,54.142-.381,117.3.921,177.411.2,294.716-.072l-7.251.226c30.752.274,77.117-.218,108.28-.425,14.368-.029,28.735,0,43.1-.035v-1.541c-14.367-.042-28.734,0-43.1-.036-31.336-.207-77.37-.695-108.28-.423l7.251.227c-117.306-.276-177.408-.992-294.716-.071-18.046.073-36.094-.46-54.142-.381-.425,0-.849,0-1.275.006q.062-13.4.059-26.8l-.053-17.259c.473,0,.946.007,1.42.007,18.046.079,36.095-.456,54.14-.382,117.305.921,177.411.208,294.717-.073l-7.25.228c30.752.274,77.119-.218,108.282-.423,14.318-.03,28.633,0,42.949-.035V2751.6c-14.316-.04-28.633,0-42.949-.035-31.336-.207-77.37-.7-108.282-.424l7.25.227c-117.306-.277-177.408-.994-294.717-.072-18.045.074-36.094-.46-54.14-.382-.476,0-.953.007-1.43.008l-.032-10.672-.178-33.4c.6,0,1.193.01,1.791.01,18.046.079,36.092-.455,54.14-.382,117.3.922,177.411.206,294.714-.069l-7.248.226c30.751.273,77.117-.218,108.28-.424,14.267-.031,28.534,0,42.8-.035v-1.542c-14.267-.041-28.532,0-42.8-.035-31.336-.206-77.369-.7-108.28-.424l7.248.226c-117.3-.276-177.407-.992-294.714-.07-18.048.073-36.093-.461-54.14-.384-.6,0-1.206.01-1.807.011l-.137-25.359q-.012-9.359,0-18.718c.7,0,1.4.011,2.1.013,18.046.078,36.1-.456,54.143-.382,117.305.922,177.41.2,294.714-.073l-7.249.226c30.752.275,77.117-.219,108.282-.422,14.214-.031,28.433,0,42.647-.037v-1.53c-14.215-.04-28.433,0-42.647-.034-31.338-.207-77.371-.694-108.282-.424l7.249.227c-117.3-.275-177.407-.991-294.714-.07-18.045.073-36.1-.46-54.143-.381-.7,0-1.4.011-2.1.014,0-13.349.012-26.7-.053-40.05l-.019-4.032c.774,0,1.548.012,2.319.014,18.047.079,36.094-.457,54.139-.383,117.307.922,177.412.21,294.718-.071l-7.25.227c30.751.273,77.117-.217,108.281-.424,14.165-.031,28.332,0,42.5-.033v-1.544c-14.165-.039-28.332,0-42.5-.034-31.336-.2-77.369-.69-108.277-.419l7.25.226c-117.306-.276-177.41-.992-294.718-.071-18.046.073-36.092-.461-54.138-.383-.778,0-1.557.013-2.332.015-.07-14.695-.133-27.737-.2-42.432.893,0,1.787.018,2.68.018,18.044.077,36.092-.458,54.14-.383,117.3.922,177.411.207,294.714-.071l-7.249.226c30.752.271,77.119-.217,108.281-.424,14.117-.031,28.231,0,42.347-.033V2565.4c-14.116-.037-28.23,0-42.347-.035-31.335-.21-77.371-.7-108.281-.428l7.249.227c-117.305-.276-177.406-.991-294.715-.07-18.047.073-36.095-.46-54.139-.383-.9,0-1.8.014-2.692.017-.065-14.7-.135-28.567-.216-43.264,1.018,0,2.038.017,3.058.021,18.046.078,36.094-.456,54.141-.383,117.3.922,177.411.206,294.714-.07l-7.249.226c30.752.275,77.117-.219,108.281-.422,11.045-.024,22.092-.019,33.137-1.588-11.043-.008-22.088,0-33.131-.027-31.335-.207-77.371-.694-108.28-.423l7.248.226c-117.3-.275-177.408-.995-294.716-.071-18.045.074-36.092-.459-54.139-.384-1.03,0-2.05.018-3.076.022-.042-7.488-.083-20.661-.136-28.148-.054,7.488-.093,20.66-.137,28.151h-.043v-33.143c.15-4.586,3.338-8.167,7.137-8.014H5614.05c3.8-.157,6.994,3.425,7.142,8.014v33.805h0v351.975h2.592c.089,0,.174.016.264.017V2484.626C5624.046,2479.267,5619.56,2474.234,5614.046,2474.234Zm-488.688,47.23q-.015,2.591-.026,5.183v-5.183Z" transform="translate(-5122.479 -2474.234)" fill="#5e9afc"/>
      <path id="Caminho_5359" data-name="Caminho 5359" d="M5125.036,2841.09c.029,4.941.06,10.168.1,13.4.04-3.435.075-8.422.106-13.4Z" transform="translate(-5122.437 -2444.075)" fill="#5e9afc"/>
      <path id="Caminho_5360" data-name="Caminho 5360" d="M5132.482,2869.072h481.569c5.416.119,9.889-4.769,10-10.917,0-.136,0-.272,0-.409V2841.09h-2.856v14.325c0,7.264-3.2,10.644-7.142,10.644H5132.475c-3.8.147-6.993-3.219-7.142-7.533V2841.09h-2.851v16.656c-.094,6.148,4.22,11.219,9.634,11.325C5132.24,2869.073,5132.361,2869.073,5132.482,2869.072Z" transform="translate(-5122.481 -2444.075)" fill="#5e9afc"/>
    </g>
    <g id="Camada_6" data-name="Camada 6" transform="translate(621.252 1757.966) rotate(39)">
      <path id="Caminho_125" data-name="Caminho 125" d="M0,27.653a61.076,61.076,0,0,0,4.252-7.509A6.241,6.241,0,0,0,.607,18.508l4.041-5.94a8.134,8.134,0,0,0-3.965-2.2c.884-1.949,2.6-3.045,3.3-5.141S3-.454,1.557.748C15.935-.208,38.382,3.191,52.42,0l-1.8,4.931c.194.723,3.006,1.492,3.445,2.007L51.315,12.19a54.8,54.8,0,0,1,4.261,3.981c-1.3,2.712.785,11.061.785,11.061s-14.425.91-17.977,1.434C28.321,30.155,10.065,26.166,0,27.653Z" transform="translate(0)" fill="#ffef9a" stroke="#171556" stroke-linecap="round" stroke-linejoin="round" stroke-width="3"/>
    </g>
    <g id="Camada_6-2" data-name="Camada 6" transform="translate(76.06 2250.657) rotate(39)">
      <path id="Caminho_125-2" data-name="Caminho 125" d="M0,27.653a61.076,61.076,0,0,0,4.252-7.509A6.241,6.241,0,0,0,.607,18.508l4.041-5.94a8.134,8.134,0,0,0-3.965-2.2c.884-1.949,2.6-3.045,3.3-5.141S3-.454,1.557.748C15.935-.208,38.382,3.191,52.42,0l-1.8,4.931c.194.723,3.006,1.492,3.445,2.007L51.315,12.19a54.8,54.8,0,0,1,4.261,3.981c-1.3,2.712.785,11.061.785,11.061s-14.425.91-17.977,1.434C28.321,30.155,10.065,26.166,0,27.653Z" transform="translate(0)" fill="#ffef9a" stroke="#171556" stroke-linecap="round" stroke-linejoin="round" stroke-width="3"/>
    </g>
  </g>
</svg>
